<?xml version="1.0" encoding="UTF-8"?>
<svg id="Layer_1" data-name="Layer 1" xmlns="http://www.w3.org/2000/svg" viewBox="0 0 25 25">
  <defs>
    <style>
      .cls-1 {
        fill: none;
        stroke-linecap: round;
        stroke-linejoin: round;
        stroke-width: 1.75px;
      }

      .cls-1, .cls-2 {
        stroke: #76722e;
      }

      .cls-1, .cls-2, .cls-3 {
        fill-rule: evenodd;
      }

      .cls-2 {
        fill: #efdc10;
        stroke-miterlimit: 10;
      }

      .cls-3 {
        fill: #76722e;
        stroke-width: 0px;
      }
    </style>
  </defs>
  <g>
    <path class="cls-2" d="m12.5,24.5c6.61,0,12-5.39,12-12S19.11.5,12.5.5.5,5.89.5,12.5s5.39,12,12,12Z"/>
    <g>
      <path class="cls-3" d="m17.45,10.43c.53,0,.96-.43.96-.96s-.43-.96-.96-.96-.96.43-.96.96.43.96.96.96Z"/>
      <path class="cls-3" d="m7.55,10.49c.53,0,.96-.43.96-.96s-.43-.96-.96-.96-.96.43-.96.96.43.96.96.96Z"/>
    </g>
  </g>
  <path class="cls-1" d="m8.68,15.17c1.36,3.05,6.19,3,7.64,0"/>
</svg>