<?xml version="1.0" encoding="UTF-8"?>
<svg id="Layer_1" data-name="Layer 1" xmlns="http://www.w3.org/2000/svg" viewBox="0 0 25 25">
  <defs>
    <style>
      .cls-1 {
        fill: #5f1710;
        stroke-width: 0px;
      }

      .cls-1, .cls-2, .cls-3 {
        fill-rule: evenodd;
      }

      .cls-2 {
        stroke-width: 1.75px;
      }

      .cls-2, .cls-4 {
        fill: none;
        stroke-linecap: round;
        stroke-linejoin: round;
      }

      .cls-2, .cls-4, .cls-3 {
        stroke: #5f1710;
      }

      .cls-3 {
        fill: #d8362a;
        stroke-miterlimit: 10;
      }
    </style>
  </defs>
  <path class="cls-3" d="m12.5,24.5c6.61,0,12-5.39,12-12S19.11.5,12.5.5.5,5.89.5,12.5s5.39,12,12,12Z"/>
  <g>
    <g>
      <path class="cls-1" d="m7.52,10.27c.52,0,.94-.42.94-.94s-.42-.94-.94-.94-.94.42-.94.94.42.94.94.94Z"/>
      <path class="cls-1" d="m17.46,10.48c.53,0,.96-.43.96-.96s-.43-.96-.96-.96-.96.43-.96.96.43.96.96.96Z"/>
    </g>
    <g>
      <line class="cls-4" x1="5.44" y1="7.8" x2="9.31" y2="9.2"/>
      <line class="cls-4" x1="16" y1="9.53" x2="19.56" y2="7.47"/>
    </g>
  </g>
  <path class="cls-2" d="m7.38,17.84c2.41-4.38,8.9-4.17,10.25.38"/>
</svg>